<mxfile host="app.diagrams.net" modified="2024-02-01T17:23:55.943Z" agent="Mozilla/5.0 (Windows NT 10.0; Win64; x64) AppleWebKit/537.36 (KHTML, like Gecko) Chrome/120.0.0.0 Safari/537.36" etag="se6wUeHcWrFeyWXY-hNP" version="23.1.1" type="device">
  <diagram name="PÃ¡gina-1" id="H4x74is4aqkUNQpkZVDS">
    <mxGraphModel dx="1434" dy="772" grid="1" gridSize="10" guides="1" tooltips="1" connect="1" arrows="1" fold="1" page="1" pageScale="1" pageWidth="827" pageHeight="1169" math="0" shadow="0">
      <root>
        <mxCell id="0" />
        <mxCell id="1" parent="0" />
        <mxCell id="tDxe-OtB1b8r3Ziq7wvD-37" style="edgeStyle=orthogonalEdgeStyle;rounded=0;orthogonalLoop=1;jettySize=auto;html=1;entryX=0.5;entryY=0;entryDx=0;entryDy=0;" edge="1" parent="1" source="tDxe-OtB1b8r3Ziq7wvD-1" target="tDxe-OtB1b8r3Ziq7wvD-2">
          <mxGeometry relative="1" as="geometry" />
        </mxCell>
        <mxCell id="tDxe-OtB1b8r3Ziq7wvD-1" value="" style="ellipse;whiteSpace=wrap;html=1;fillColor=#000000;" vertex="1" parent="1">
          <mxGeometry x="170" y="320" width="30" height="30" as="geometry" />
        </mxCell>
        <mxCell id="tDxe-OtB1b8r3Ziq7wvD-6" style="edgeStyle=orthogonalEdgeStyle;rounded=0;orthogonalLoop=1;jettySize=auto;html=1;" edge="1" parent="1" source="tDxe-OtB1b8r3Ziq7wvD-2" target="tDxe-OtB1b8r3Ziq7wvD-5">
          <mxGeometry relative="1" as="geometry" />
        </mxCell>
        <mxCell id="tDxe-OtB1b8r3Ziq7wvD-15" style="edgeStyle=orthogonalEdgeStyle;rounded=0;orthogonalLoop=1;jettySize=auto;html=1;entryX=0.5;entryY=0;entryDx=0;entryDy=0;" edge="1" parent="1" source="tDxe-OtB1b8r3Ziq7wvD-2" target="tDxe-OtB1b8r3Ziq7wvD-14">
          <mxGeometry relative="1" as="geometry" />
        </mxCell>
        <mxCell id="tDxe-OtB1b8r3Ziq7wvD-2" value="Pagina Inicio" style="rounded=1;whiteSpace=wrap;html=1;" vertex="1" parent="1">
          <mxGeometry x="125" y="400" width="120" height="60" as="geometry" />
        </mxCell>
        <mxCell id="tDxe-OtB1b8r3Ziq7wvD-32" style="edgeStyle=orthogonalEdgeStyle;rounded=0;orthogonalLoop=1;jettySize=auto;html=1;entryX=0;entryY=0.5;entryDx=0;entryDy=0;" edge="1" parent="1" source="tDxe-OtB1b8r3Ziq7wvD-5" target="tDxe-OtB1b8r3Ziq7wvD-31">
          <mxGeometry relative="1" as="geometry" />
        </mxCell>
        <mxCell id="tDxe-OtB1b8r3Ziq7wvD-5" value="Carrito" style="rounded=1;whiteSpace=wrap;html=1;" vertex="1" parent="1">
          <mxGeometry x="310" y="400" width="120" height="60" as="geometry" />
        </mxCell>
        <mxCell id="tDxe-OtB1b8r3Ziq7wvD-13" style="edgeStyle=orthogonalEdgeStyle;rounded=0;orthogonalLoop=1;jettySize=auto;html=1;entryX=0.5;entryY=1;entryDx=0;entryDy=0;" edge="1" parent="1" source="tDxe-OtB1b8r3Ziq7wvD-10" target="tDxe-OtB1b8r3Ziq7wvD-12">
          <mxGeometry relative="1" as="geometry" />
        </mxCell>
        <mxCell id="tDxe-OtB1b8r3Ziq7wvD-10" value="Pago" style="rounded=1;whiteSpace=wrap;html=1;" vertex="1" parent="1">
          <mxGeometry x="650" y="400" width="120" height="60" as="geometry" />
        </mxCell>
        <mxCell id="tDxe-OtB1b8r3Ziq7wvD-41" style="edgeStyle=orthogonalEdgeStyle;rounded=0;orthogonalLoop=1;jettySize=auto;html=1;entryX=0.5;entryY=1;entryDx=0;entryDy=0;" edge="1" parent="1" source="tDxe-OtB1b8r3Ziq7wvD-12" target="tDxe-OtB1b8r3Ziq7wvD-38">
          <mxGeometry relative="1" as="geometry" />
        </mxCell>
        <mxCell id="tDxe-OtB1b8r3Ziq7wvD-12" value="Resumen" style="rounded=1;whiteSpace=wrap;html=1;" vertex="1" parent="1">
          <mxGeometry x="650" y="300" width="120" height="60" as="geometry" />
        </mxCell>
        <mxCell id="tDxe-OtB1b8r3Ziq7wvD-16" style="edgeStyle=orthogonalEdgeStyle;rounded=0;orthogonalLoop=1;jettySize=auto;html=1;entryX=0;entryY=0.5;entryDx=0;entryDy=0;" edge="1" parent="1" source="tDxe-OtB1b8r3Ziq7wvD-14" target="tDxe-OtB1b8r3Ziq7wvD-5">
          <mxGeometry relative="1" as="geometry" />
        </mxCell>
        <mxCell id="tDxe-OtB1b8r3Ziq7wvD-14" value="Productos" style="rounded=1;whiteSpace=wrap;html=1;" vertex="1" parent="1">
          <mxGeometry x="125" y="530" width="120" height="60" as="geometry" />
        </mxCell>
        <mxCell id="tDxe-OtB1b8r3Ziq7wvD-33" style="edgeStyle=orthogonalEdgeStyle;rounded=0;orthogonalLoop=1;jettySize=auto;html=1;" edge="1" parent="1" source="tDxe-OtB1b8r3Ziq7wvD-31" target="tDxe-OtB1b8r3Ziq7wvD-10">
          <mxGeometry relative="1" as="geometry" />
        </mxCell>
        <mxCell id="tDxe-OtB1b8r3Ziq7wvD-36" style="edgeStyle=orthogonalEdgeStyle;rounded=0;orthogonalLoop=1;jettySize=auto;html=1;exitX=0.5;exitY=0;exitDx=0;exitDy=0;entryX=0.5;entryY=0;entryDx=0;entryDy=0;" edge="1" parent="1" source="tDxe-OtB1b8r3Ziq7wvD-31" target="tDxe-OtB1b8r3Ziq7wvD-5">
          <mxGeometry relative="1" as="geometry">
            <Array as="points">
              <mxPoint x="540" y="350" />
              <mxPoint x="370" y="350" />
            </Array>
          </mxGeometry>
        </mxCell>
        <mxCell id="tDxe-OtB1b8r3Ziq7wvD-31" value="Tiene productos" style="rhombus;whiteSpace=wrap;html=1;" vertex="1" parent="1">
          <mxGeometry x="500" y="390" width="80" height="80" as="geometry" />
        </mxCell>
        <mxCell id="tDxe-OtB1b8r3Ziq7wvD-34" value="Si" style="text;html=1;strokeColor=none;fillColor=none;align=center;verticalAlign=middle;whiteSpace=wrap;rounded=0;" vertex="1" parent="1">
          <mxGeometry x="580" y="410" width="60" height="30" as="geometry" />
        </mxCell>
        <mxCell id="tDxe-OtB1b8r3Ziq7wvD-35" value="No" style="text;html=1;strokeColor=none;fillColor=none;align=center;verticalAlign=middle;whiteSpace=wrap;rounded=0;" vertex="1" parent="1">
          <mxGeometry x="500" y="360" width="60" height="30" as="geometry" />
        </mxCell>
        <mxCell id="tDxe-OtB1b8r3Ziq7wvD-38" value="" style="ellipse;whiteSpace=wrap;html=1;aspect=fixed;" vertex="1" parent="1">
          <mxGeometry x="690" y="200" width="40" height="40" as="geometry" />
        </mxCell>
        <mxCell id="tDxe-OtB1b8r3Ziq7wvD-39" value="" style="ellipse;whiteSpace=wrap;html=1;aspect=fixed;fillColor=#000000;" vertex="1" parent="1">
          <mxGeometry x="695" y="205" width="30" height="30" as="geometry" />
        </mxCell>
      </root>
    </mxGraphModel>
  </diagram>
</mxfile>
